<?xml version="1.0" standalone="no"?>
<!DOCTYPE svg PUBLIC "-//W3C//DTD SVG 20010904//EN"
 "http://www.w3.org/TR/2001/REC-SVG-20010904/DTD/svg10.dtd">
<svg version="1.0" xmlns="http://www.w3.org/2000/svg"
 width="387.000000pt" height="220.000000pt" viewBox="0 0 387.000000 220.000000"
 preserveAspectRatio="xMidYMid meet">

<g transform="translate(0.000000,220.000000) scale(0.100000,-0.100000)"
fill="#000000" stroke="none">
<path d="M1830 1341 c-94 -50 -112 -171 -36 -247 60 -60 149 -64 215 -8 78 66
58 205 -38 254 -50 25 -96 26 -141 1z m80 -21 c0 -11 -4 -20 -10 -20 -5 0 -13
0 -17 0 -5 0 -8 3 -8 8 0 4 -4 13 -8 20 -6 8 -1 12 17 12 19 0 26 -5 26 -20z
m-60 -15 c0 -8 -7 -15 -15 -15 -8 0 -15 -4 -15 -10 0 -5 -12 -10 -27 -10 l-28
0 25 24 c28 28 60 34 60 11z m146 -21 c-8 -8 -22 -14 -30 -14 -25 0 -19 28 7
32 31 6 40 -1 23 -18z m-182 -39 c3 -9 -4 -21 -20 -31 -28 -19 -40 -13 -29 13
5 10 7 21 7 26 -3 14 36 7 42 -8z m174 -1 c14 -15 17 -15 29 1 13 19 14 19 28
-32 2 -6 -5 -13 -16 -16 -10 -3 -19 0 -20 6 0 9 -2 9 -5 0 -3 -7 -12 -9 -21
-6 -11 4 -14 2 -9 -5 5 -8 -2 -12 -19 -12 -15 0 -24 4 -20 10 3 6 2 10 -4 10
-5 0 -8 8 -6 18 2 9 4 23 4 30 1 17 39 15 59 -4z m-151 -80 c-3 -3 -12 -4 -19
-1 -8 3 -5 6 6 6 11 1 17 -2 13 -5z m152 -24 c-12 -34 -29 -40 -29 -10 0 10
-8 24 -17 29 -15 8 -11 10 19 11 37 0 37 0 27 -30z m-113 -1 c3 -6 1 -16 -5
-22 -8 -8 -16 -5 -31 11 l-21 22 25 0 c14 0 28 -5 32 -11z"/>
<path d="M1950 1220 c0 -5 7 -10 15 -10 8 0 15 5 15 10 0 6 -7 10 -15 10 -8 0
-15 -4 -15 -10z"/>
<path d="M1540 1276 c0 -85 11 -146 26 -146 10 0 14 15 14 56 l0 55 43 -3 42
-3 3 -52 c2 -38 7 -53 18 -53 11 0 14 16 14 70 l0 69 -57 3 c-55 3 -58 4 -61
31 -2 19 -9 27 -23 27 -16 0 -19 -7 -19 -54z"/>
<path d="M2680 1315 c0 -8 6 -15 14 -15 8 0 16 7 20 15 4 10 -1 15 -14 15 -11
0 -20 -7 -20 -15z"/>
<path d="M667 1256 c-3 -8 -2 -27 2 -43 7 -26 11 -28 64 -31 73 -4 65 -22 -9
-22 -42 0 -54 -3 -54 -15 0 -13 13 -15 77 -13 84 3 92 10 79 64 -6 22 -11 24
-66 24 -76 0 -79 18 -3 22 34 2 58 8 61 16 6 19 -144 17 -151 -2z"/>
<path d="M860 1213 c0 -78 6 -85 70 -81 66 4 80 25 18 30 -42 3 -43 4 -46 41
l-3 37 40 0 c23 0 41 -4 41 -10 0 -5 -13 -10 -30 -10 -24 0 -30 -4 -30 -21 0
-18 5 -20 48 -17 l47 3 3 43 3 42 -80 0 -81 0 0 -57z"/>
<path d="M1058 1258 c-2 -7 -2 -39 0 -70 l4 -58 43 0 c29 0 45 5 49 15 3 10
-1 15 -13 15 -38 0 -51 11 -51 46 0 34 1 34 45 34 l45 0 0 -55 c0 -49 2 -55
20 -55 19 0 21 5 18 68 l-3 67 -76 3 c-56 2 -78 -1 -81 -10z"/>
<path d="M1250 1200 c0 -63 2 -70 20 -70 18 0 20 7 20 54 0 52 1 55 27 58 14
2 28 9 31 16 2 8 -11 12 -47 12 l-51 0 0 -70z"/>
<path d="M1378 1258 c-3 -7 -2 -38 1 -68 l6 -55 63 -3 c51 -2 62 0 62 13 0 10
-10 15 -34 15 -54 0 -66 8 -66 46 0 34 1 34 45 34 33 0 45 4 45 15 0 20 -115
22 -122 3z"/>
<path d="M2102 1203 l3 -68 56 -3 c44 -2 58 1 62 13 5 12 -1 15 -31 15 -50 0
-64 11 -60 46 3 26 7 29 46 32 25 2 42 -1 42 -7 0 -6 -13 -11 -30 -11 -24 0
-30 -4 -30 -21 0 -18 5 -20 48 -17 l47 3 3 43 3 42 -81 0 -81 0 3 -67z"/>
<path d="M2297 1263 c-2 -5 -2 -36 1 -70 3 -45 8 -63 18 -63 10 0 14 15 14 55
l0 55 45 0 45 0 0 -55 c0 -48 2 -55 20 -55 18 0 20 7 20 54 0 85 -1 86 -85 86
-41 0 -76 -3 -78 -7z"/>
<path d="M2492 1203 l3 -68 44 0 c27 0 46 5 49 13 2 7 -5 12 -20 12 -36 0 -50
14 -46 46 3 27 6 29 48 29 l45 0 3 -62 3 -63 -29 0 c-22 0 -31 -6 -35 -21 -5
-18 -2 -20 41 -17 l47 3 3 98 3 97 -81 0 -81 0 3 -67z"/>
<path d="M2684 1239 c3 -17 6 -49 6 -70 0 -28 4 -39 15 -39 12 0 15 14 15 70
0 65 -2 70 -21 70 -19 0 -21 -4 -15 -31z"/>
<path d="M2757 1263 c-2 -5 -2 -36 1 -70 3 -45 8 -63 18 -63 10 0 14 15 14 55
l0 55 45 0 45 0 0 -55 c0 -42 3 -55 15 -55 12 0 15 14 15 70 l0 70 -74 0 c-41
0 -77 -3 -79 -7z"/>
<path d="M2952 1203 l3 -68 56 -3 c44 -2 58 1 62 13 5 12 -1 15 -31 15 -50 0
-64 11 -60 46 3 26 7 29 46 32 25 2 42 -1 42 -7 0 -6 -13 -11 -30 -11 -24 0
-30 -4 -30 -21 0 -18 5 -20 48 -17 l47 3 3 43 3 42 -81 0 -81 0 3 -67z"/>
<path d="M1838 959 c25 -9 23 -18 -11 -56 l-20 -23 34 1 c19 1 26 3 17 6 -21
5 -22 12 -3 36 18 24 9 47 -19 46 -20 0 -20 -1 2 -10z"/>
<path d="M1927 963 c-9 -8 -9 -46 -1 -67 9 -23 31 -20 45 5 19 37 -18 89 -44
62z m36 -17 c8 -21 -4 -57 -17 -53 -18 6 -20 67 -3 67 8 0 17 -6 20 -14z"/>
</g>
</svg>
